<svg xmlns="http://www.w3.org/2000/svg" viewBox="0 0 600 800">
  <defs>
    <radialGradient id="halo" cx="50%" cy="35%" r="60%">
      <stop offset="0%" stop-color="#3bc7ff" stop-opacity="0.9" />
      <stop offset="45%" stop-color="#1c6dd0" stop-opacity="0.85" />
      <stop offset="100%" stop-color="#0c1f3c" stop-opacity="0" />
    </radialGradient>
    <linearGradient id="suit" x1="0%" y1="0%" x2="0%" y2="100%">
      <stop offset="0%" stop-color="#1f2d3f" />
      <stop offset="100%" stop-color="#0f1827" />
    </linearGradient>
    <linearGradient id="tie" x1="0%" y1="0%" x2="0%" y2="100%">
      <stop offset="0%" stop-color="#1a79c1" />
      <stop offset="100%" stop-color="#0c3c74" />
    </linearGradient>
  </defs>
  <rect width="600" height="800" fill="transparent" />
  <circle cx="300" cy="260" r="320" fill="url(#halo)" />
  <path d="M110 640 Q300 520 490 640 L520 780 L80 780 Z" fill="url(#suit)" />
  <path d="M260 440 L340 440 L370 640 L230 640 Z" fill="#e8edf4" />
  <path d="M260 440 L300 520 L340 440 L330 640 L270 640 Z" fill="url(#tie)" />
  <path d="M185 440 Q220 320 280 300 Q300 420 260 470 Z" fill="#e8edf4" />
  <path d="M415 440 Q380 320 320 300 Q300 420 340 470 Z" fill="#e8edf4" />
  <ellipse cx="300" cy="320" rx="170" ry="210" fill="#e6c8a6" />
  <path d="M140 320 Q180 110 300 120 Q420 110 460 320 Q430 210 300 210 Q170 210 140 320 Z" fill="#1a1410" />
  <path d="M155 360 Q220 470 300 470 Q380 470 445 360 Q420 520 300 560 Q180 520 155 360 Z" fill="#31231b" />
  <ellipse cx="300" cy="140" rx="170" ry="70" fill="rgba(255,255,255,0.3)" />
  <circle cx="232" cy="310" r="22" fill="#231710" />
  <circle cx="368" cy="310" r="22" fill="#231710" />
  <circle cx="232" cy="306" r="8" fill="#f5f5f5" opacity="0.7" />
  <circle cx="368" cy="306" r="8" fill="#f5f5f5" opacity="0.7" />
  <path d="M250 360 Q300 390 350 360" stroke="#1f1914" stroke-width="20" stroke-linecap="round" fill="none" />
  <path d="M250 470 Q300 520 350 470" stroke="#110d0a" stroke-width="28" stroke-linecap="round" fill="none" opacity="0.85" />
</svg>
